Coordinates
version=1
nRows=13
nColumns=38
inDegrees=no

Units are S.I. units (second, meters, Newtons, ...)
If the header above contains a line with 'inDegrees', this indicates whether rotational values are in degrees (yes) or radians (no).

endheader
time	pelvis_tilt	pelvis_list	pelvis_rotation	pelvis_tx	pelvis_ty	pelvis_tz	hip_flexion_r	hip_adduction_r	hip_rotation_r	knee_angle_r	ankle_angle_r	subtalar_angle_r	mtp_angle_r	hip_flexion_l	hip_adduction_l	hip_rotation_l	knee_angle_l	ankle_angle_l	subtalar_angle_l	mtp_angle_l	lumbar_extension	lumbar_bending	lumbar_rotation	arm_flex_r	arm_add_r	arm_rot_r	elbow_flex_r	pro_sup_r	wrist_flex_r	wrist_dev_r	arm_flex_l	arm_add_l	arm_rot_l	elbow_flex_l	pro_sup_l	wrist_flex_l	wrist_dev_l
0	2.97448	1.48675	-1.24538	0.672883	-0.801876	0.911865	0.344615	-0.100274	-0.402165	0.318221	0.0693838	0	0	-0.339701	-0.112544	-0.240259	0.332998	0.279164	0	0	-0.22652	0.0766263	-0.192694	-0.0286393	-0.261697	0.490356	0.535399	1.3222	0	0	0.0976541	-0.347769	0.449724	0.827127	1.00431	0	0
0.01	2.92135	1.48502	-1.18914	0.674651	-0.791523	0.912524	0.338987	-0.0962683	-0.40783	0.332093	0.0651767	0	0	-0.329066	-0.128773	-0.240453	0.372393	0.267965	0	0	-0.223922	0.0858625	-0.19203	-0.0293178	-0.263712	0.499587	0.528421	1.32028	0	0	0.0902621	-0.343578	0.45038	0.819716	1.00228	0	0
0.02	2.84837	1.48281	-1.11593	0.676856	-0.78104	0.913313	0.33363	-0.0892207	-0.412939	0.34511	0.0627073	0	0	-0.315687	-0.147333	-0.243642	0.416321	0.253089	0	0	-0.220877	0.0962322	-0.186992	-0.0310081	-0.265962	0.505957	0.522267	1.31644	0	0	0.083334	-0.339256	0.453006	0.811484	1.00304	0	0
0.03	2.76473	1.48073	-1.0341	0.679375	-0.770536	0.914163	0.328726	-0.080251	-0.417931	0.356037	0.0618815	0	0	-0.298809	-0.166988	-0.246872	0.464085	0.234187	0	0	-0.216814	0.10691	-0.179774	-0.0325071	-0.26879	0.512633	0.516959	1.30972	0	0	0.0759459	-0.335079	0.45617	0.803451	1.00449	0	0
0.04	2.67914	1.47927	-0.952155	0.682195	-0.760063	0.915	0.324041	-0.0698459	-0.421329	0.363463	0.0614974	0	0	-0.278254	-0.186471	-0.24919	0.514809	0.208824	0	0	-0.211371	0.116528	-0.170577	-0.0344232	-0.272561	0.519687	0.515719	1.29761	0	0	0.06828	-0.331519	0.45997	0.796269	1.00323	0	0
0.05	2.59242	1.47959	-0.870488	0.68527	-0.749708	0.915689	0.320794	-0.0590378	-0.423084	0.367752	0.0611608	0	0	-0.252664	-0.204533	-0.248478	0.567897	0.17469	0	0	-0.203716	0.124117	-0.160708	-0.0357321	-0.276647	0.529781	0.51527	1.283	0	0	0.0602116	-0.328119	0.4612	0.789777	0.994454	0	0
0.06	2.50334	1.48263	-0.787629	0.688465	-0.739597	0.91612	0.320211	-0.0494025	-0.423192	0.37049	0.0619329	0	0	-0.221329	-0.219448	-0.243687	0.623006	0.13394	0	0	-0.193644	0.128966	-0.150903	-0.0358174	-0.281227	0.542484	0.516136	1.26748	0	0	0.0511407	-0.32563	0.461655	0.784487	0.986179	0	0
0.07	2.40892	1.48752	-0.700284	0.691675	-0.72975	0.916387	0.321349	-0.0411596	-0.422241	0.372525	0.0645896	0	0	-0.18614	-0.231186	-0.235652	0.678732	0.0881476	0	0	-0.182228	0.13154	-0.140757	-0.0350742	-0.284653	0.548112	0.514961	1.27367	0	0	0.04178	-0.323927	0.463689	0.77935	0.987243	0	0
0.08	2.30462	1.4901	-0.601792	0.694866	-0.719936	0.916743	0.319323	-0.0298958	-0.418059	0.370186	0.0675903	0	0	-0.150302	-0.244458	-0.225601	0.734768	0.0401762	0	0	-0.171411	0.135284	-0.13208	-0.0336649	-0.289611	0.559536	0.516933	1.26987	0	0	0.0319761	-0.323276	0.466798	0.776441	0.976207	0	0
0.09	2.2125	1.4896	-0.513453	0.697859	-0.710293	0.917331	0.313143	-0.016482	-0.411473	0.364468	0.0706586	0	0	-0.114946	-0.258414	-0.211917	0.79037	-0.00953398	0	0	-0.163135	0.140462	-0.125395	-0.0308542	-0.294358	0.568066	0.519686	1.27052	0	0	0.0220963	-0.323033	0.468791	0.774254	0.970582	0	0
0.1	2.15111	1.48769	-0.455068	0.700643	-0.700901	0.918142	0.304382	-0.00372285	-0.404151	0.358785	0.074062	0	0	-0.0808726	-0.270082	-0.195063	0.84464	-0.0595401	0	0	-0.158154	0.145402	-0.119336	-0.0272417	-0.299629	0.574712	0.524157	1.27309	0	0	0.0129492	-0.323112	0.470561	0.772891	0.965814	0	0
0.11	2.12002	1.48579	-0.427619	0.703274	-0.69165	0.919132	0.294073	0.0072093	-0.396194	0.354487	0.0782242	0	0	-0.0492035	-0.278359	-0.17755	0.896177	-0.108464	0	0	-0.156039	0.149092	-0.112707	-0.0227038	-0.304909	0.577765	0.52937	1.27601	0	0	0.00459308	-0.321964	0.468443	0.770625	0.972806	0	0
0.12	2.09752	1.48452	-0.410572	0.705823	-0.682526	0.920167	0.283885	0.0171021	-0.385775	0.350814	0.0826653	0	0	-0.0188351	-0.284201	-0.162629	0.94462	-0.151276	0	0	-0.154573	0.151838	-0.104068	-0.0177182	-0.311618	0.582685	0.53608	1.27715	0	0	-0.00277321	-0.321125	0.471017	0.768592	0.969403	0	0
